<svg id="Layer_1" data-name="Layer 1" xmlns="http://www.w3.org/2000/svg" viewBox="0 0 423 273"><defs><style>.cls-1{fill:#797978;}.cls-2{fill:#e86262;}.cls-3{fill:#448fb3;}.cls-4{fill:#94cd98;}.cls-5{fill:#f4c252;}.cls-6{fill:#70afac;}.cls-7{fill:none;}</style></defs><title>Artboard 1 copy 2</title><path class="cls-1" d="M82.15,209.44a6.36,6.36,0,1,1-6.36-6.36,6.35,6.35,0,0,1,6.36,6.36"/><path class="cls-1" d="M254,209.44a6.36,6.36,0,1,1-6.36-6.36,6.35,6.35,0,0,1,6.36,6.36"/><path class="cls-1" d="M.26,254c-1.08-9.77,5.07-15.23,11.83-15.23A12.25,12.25,0,0,1,24.34,251c-.09,1.86-.74,15.66,11.49,13.66,4.9-1.09,8.55-8.31,8.08-20.25,0,0,1-18-12.29-22.56V57.05c0-4.41-1.24-5.6-5.66-5.57H14.55V49.27H43c4,.21,6.77,4.23,6.77,8.29V240.31c0,14.21-5.2,24.48-14.15,28.42C24.65,273.57,2.17,271.31.26,254"/><path class="cls-1" d="M204.58,72.92a13.2,13.2,0,0,0,4.79,1,12.25,12.25,0,1,0-3.29-24v0c-3.28.45-11.87,7.21-11.87,7.21l-72.53,64V57.56a8.28,8.28,0,0,0-8-8.29H91.77v2.21h6.09c4.41,0,5.63,1.16,5.65,5.57h0V212.51h18.17v-88.2L134,113.66l63.26,90.81c6.09,8.51,13,7.33,15.53,7.38H230v-2.41h-2.88c-3.24,0-7.22-4.58-9.62-7.78l-69.63-99.95c11.64-10.06,23.82-20.55,29.31-25.21,11.33-9.63,25.72-4.28,27.45-3.58"/><path class="cls-2" d="M356.36,212.23H315.85a2.24,2.24,0,0,1-2.24-2.24V199.5a2.24,2.24,0,0,1,2.24-2.25h40.51a2.25,2.25,0,0,1,2.25,2.25V210a2.24,2.24,0,0,1-2.25,2.24"/><path class="cls-3" d="M322.81,215.37a13.59,13.59,0,0,0,26.6,0Z"/><path class="cls-4" d="M279.09,84A54.21,54.21,0,0,1,289.94,50.6L269.85,31.17a82.1,82.1,0,0,0-19.06,63.3h29.15A75.7,75.7,0,0,1,279.09,84"/><path class="cls-5" d="M280.1,95.38H250.9a83.35,83.35,0,0,0,29.36,52.93L300.19,129c-9.54-10-17.38-18-20.09-33.65"/><path class="cls-3" d="M270.45,30.48l20.05,19.4a59,59,0,0,1,45.15-22.72V.13a88,88,0,0,0-65.2,30.35"/><path class="cls-2" d="M327.45,168.36h.09c-.61-2.75-6.25-15.27-15-25.49-4-5.08-8-9.29-11.73-13.19l-19.89,19.24c8.63,8.76,18.82,21,21.87,32.56h0c2.06,8.14,6.79,12.77,14.29,12.77h18.55V174h-7.34a23.07,23.07,0,0,0-.86-5.63"/><path class="cls-5" d="M402.51,31.33,382.4,50.78A54.26,54.26,0,0,1,393.13,84a74.23,74.23,0,0,1-.86,10.46h29.16a82.11,82.11,0,0,0-18.92-63.14"/><path class="cls-4" d="M372.17,128.88l19.95,19.29a83.4,83.4,0,0,0,29.2-52.79h-29.2c-2.7,15.53-10.47,23.61-19.95,33.5"/><path class="cls-6" d="M381.85,50.05l20.06-19.4A88,88,0,0,0,336.56.13v27a58.93,58.93,0,0,1,45.29,22.89"/><path class="cls-3" d="M359.67,142.88c-8.74,10.22-14.39,22.74-15,25.49h.08a23.53,23.53,0,0,0-.85,5.63h-7.35v20.27h18.55c7.5,0,12.23-4.63,14.29-12.77h0c3.07-11.59,13.36-24,22-32.72l-19.89-19.24c-3.78,3.95-7.81,8.2-11.88,13.35"/><rect class="cls-7" x="-170.92" y="-138" width="764" height="560"/><path class="cls-1" d="M77.9,240.67v1.2h-6v3.4h5.56v1.2H71.93v3.71h6v1.2H70.5V240.67Z"/><path class="cls-1" d="M81.32,240.67H83l2.67,4.18,2.79-4.18h1.59l-3.54,5.2,3.76,5.51H88.56L85.68,247l-3,4.43H81.12l3.72-5.51Z"/><path class="cls-1" d="M100.56,242.18a3.34,3.34,0,0,0-2-.57A3.48,3.48,0,0,0,97,242a3.18,3.18,0,0,0-1.12,1,4.06,4.06,0,0,0-.66,1.39A6.2,6.2,0,0,0,95,246a7,7,0,0,0,.21,1.73,4,4,0,0,0,.66,1.42,3.13,3.13,0,0,0,1.13,1,3.53,3.53,0,0,0,1.65.36,3.24,3.24,0,0,0,1.25-.23,2.87,2.87,0,0,0,1-.65,3,3,0,0,0,.62-1,4.09,4.09,0,0,0,.27-1.23h1.42a4.86,4.86,0,0,1-1.39,3.15,4.52,4.52,0,0,1-3.24,1.13,5.26,5.26,0,0,1-2.18-.43A4.32,4.32,0,0,1,94.79,250a5,5,0,0,1-.92-1.77,7.39,7.39,0,0,1-.31-2.19,7.18,7.18,0,0,1,.33-2.2,5.25,5.25,0,0,1,1-1.79,4.49,4.49,0,0,1,1.59-1.21,5.17,5.17,0,0,1,2.18-.44,5.51,5.51,0,0,1,1.59.23,4.25,4.25,0,0,1,1.33.66,3.76,3.76,0,0,1,1,1.08,4,4,0,0,1,.51,1.51h-1.43A2.66,2.66,0,0,0,100.56,242.18Z"/><path class="cls-1" d="M114.93,240.67v1.2h-6v3.4h5.57v1.2H109v3.71h6v1.2h-7.44V240.67Z"/><path class="cls-1" d="M120.75,240.67v9.51h5.67v1.2h-7.09V240.67Z"/><path class="cls-1" d="M131.72,240.67v9.51h5.67v1.2h-7.1V240.67Z"/><path class="cls-1" d="M148.65,240.67v1.2h-6v3.4h5.57v1.2h-5.57v3.71h6v1.2h-7.44V240.67Z"/><path class="cls-1" d="M154.55,240.67l5.64,8.68h0v-8.68h1.35v10.71H160l-5.6-8.6h0v8.6H153V240.67Z"/><path class="cls-1" d="M173,242.18a3.34,3.34,0,0,0-1.95-.57,3.48,3.48,0,0,0-1.64.36,3.18,3.18,0,0,0-1.12,1,4.06,4.06,0,0,0-.66,1.39,6.2,6.2,0,0,0-.21,1.62,7,7,0,0,0,.21,1.73,4,4,0,0,0,.66,1.42,3.13,3.13,0,0,0,1.13,1,3.53,3.53,0,0,0,1.65.36,3.24,3.24,0,0,0,1.25-.23,2.87,2.87,0,0,0,.95-.65,3,3,0,0,0,.62-1,4.09,4.09,0,0,0,.27-1.23h1.42a4.86,4.86,0,0,1-1.39,3.15,4.52,4.52,0,0,1-3.24,1.13,5.26,5.26,0,0,1-2.18-.43,4.32,4.32,0,0,1-1.54-1.18,5,5,0,0,1-.92-1.77,7.39,7.39,0,0,1-.31-2.19,7.18,7.18,0,0,1,.33-2.2,5.25,5.25,0,0,1,1-1.79,4.49,4.49,0,0,1,1.59-1.21,5.17,5.17,0,0,1,2.18-.44,5.51,5.51,0,0,1,1.59.23,4.25,4.25,0,0,1,1.33.66,3.76,3.76,0,0,1,1,1.08,4,4,0,0,1,.51,1.51H174A2.66,2.66,0,0,0,173,242.18Z"/><path class="cls-1" d="M187.35,240.67v1.2h-6v3.4H187v1.2h-5.57v3.71h6v1.2H180V240.67Z"/><path class="cls-1" d="M205.94,240.67v1.2h-6v3.4h5.56v1.2H200v3.71h6v1.2h-7.44V240.67Z"/><path class="cls-1" d="M211.83,240.67l5.64,8.68h0v-8.68h1.35v10.71h-1.56l-5.59-8.6h0v8.6h-1.35V240.67Z"/><path class="cls-1" d="M230.24,251.25a5.2,5.2,0,0,1-1.88.37,4.91,4.91,0,0,1-2.14-.45,4.79,4.79,0,0,1-1.61-1.19,5.18,5.18,0,0,1-1-1.72,6.06,6.06,0,0,1-.35-2,7.48,7.48,0,0,1,.33-2.23,5.34,5.34,0,0,1,1-1.85,4.64,4.64,0,0,1,1.59-1.27,5,5,0,0,1,2.22-.47,6.78,6.78,0,0,1,1.65.2,4.36,4.36,0,0,1,1.38.64,4,4,0,0,1,1,1.1A4.49,4.49,0,0,1,233,244h-1.43a2.78,2.78,0,0,0-.39-1.06,2.44,2.44,0,0,0-.7-.73,3.29,3.29,0,0,0-.95-.43,4.68,4.68,0,0,0-1.14-.14,3.38,3.38,0,0,0-1.67.39,3.41,3.41,0,0,0-1.14,1,4.66,4.66,0,0,0-.65,1.45,6.78,6.78,0,0,0-.21,1.68,5.41,5.41,0,0,0,.24,1.61,4.18,4.18,0,0,0,.7,1.36,3.53,3.53,0,0,0,1.15,1,3.47,3.47,0,0,0,1.58.35,3.85,3.85,0,0,0,1.49-.27,3.24,3.24,0,0,0,1.09-.74,3.27,3.27,0,0,0,.66-1.11,3.64,3.64,0,0,0,.2-1.37h-3.42v-1.2h4.69v5.64h-.9L231.8,250A3.6,3.6,0,0,1,230.24,251.25Z"/><path class="cls-1" d="M239.22,240.67v9.51h5.67v1.2H237.8V240.67Z"/><path class="cls-1" d="M250.25,240.67v10.71h-1.43V240.67Z"/><path class="cls-1" d="M260.64,242.13a3,3,0,0,0-1.83-.52,4.31,4.31,0,0,0-.88.09,2.29,2.29,0,0,0-.77.3,1.53,1.53,0,0,0-.54.56,1.71,1.71,0,0,0-.21.88,1.09,1.09,0,0,0,.3.8,2,2,0,0,0,.78.51,6.88,6.88,0,0,0,1.1.32c.41.08.83.18,1.25.28a12.8,12.8,0,0,1,1.25.35,4.11,4.11,0,0,1,1.11.55,2.85,2.85,0,0,1,.69,3.65,3.34,3.34,0,0,1-1,1,4.21,4.21,0,0,1-1.34.55,6.29,6.29,0,0,1-3.18-.05,4.4,4.4,0,0,1-1.41-.68,3.43,3.43,0,0,1-1-1.17,3.86,3.86,0,0,1-.35-1.69H256a2.45,2.45,0,0,0,.26,1.16,2.48,2.48,0,0,0,.69.81,3,3,0,0,0,1,.46,4.58,4.58,0,0,0,1.17.15,5.39,5.39,0,0,0,1-.09A2.73,2.73,0,0,0,261,250a1.7,1.7,0,0,0,.63-.59,1.75,1.75,0,0,0,.24-1,1.32,1.32,0,0,0-.29-.9,2,2,0,0,0-.78-.56,5.93,5.93,0,0,0-1.1-.35l-1.25-.28q-.65-.15-1.26-.33a4.61,4.61,0,0,1-1.1-.5,2.45,2.45,0,0,1-.78-.79,2.39,2.39,0,0,1-.29-1.22,2.88,2.88,0,0,1,.33-1.41,2.83,2.83,0,0,1,.88-1,3.7,3.7,0,0,1,1.24-.57,5.3,5.3,0,0,1,1.43-.19,5.72,5.72,0,0,1,1.53.2,3.43,3.43,0,0,1,1.24.61,2.83,2.83,0,0,1,.84,1.06,3.7,3.7,0,0,1,.34,1.52h-1.35A2.23,2.23,0,0,0,260.64,242.13Z"/><path class="cls-1" d="M269,240.67v4.6h5.64v-4.6h1.43v10.71h-1.43v-4.91H269v4.91h-1.42V240.67Z"/><path class="cls-1" d="M289.29,240.67v9.51H295v1.2h-7.09V240.67Z"/><path class="cls-1" d="M303.32,240.67l4.18,10.71h-1.57l-1.17-3.23h-4.53l-1.2,3.23h-1.46l4.17-10.71Zm1,6.28-1.79-5h0l-1.81,5Z"/><path class="cls-1" d="M312.68,240.67l5.64,8.68h0v-8.68h1.35v10.71h-1.56l-5.6-8.6h0v8.6h-1.35V240.67Z"/><path class="cls-1" d="M331.08,251.25a5.15,5.15,0,0,1-1.87.37,5,5,0,0,1-2.15-.45,4.75,4.75,0,0,1-1.6-1.19,5.21,5.21,0,0,1-1-1.72,6.05,6.05,0,0,1-.34-2,7.47,7.47,0,0,1,.32-2.23,5.52,5.52,0,0,1,1-1.85,4.83,4.83,0,0,1,1.59-1.27,5,5,0,0,1,2.23-.47,6.7,6.7,0,0,1,1.64.2,4.17,4.17,0,0,1,1.38.64,3.7,3.7,0,0,1,1,1.1,4.31,4.31,0,0,1,.56,1.62h-1.42a2.78,2.78,0,0,0-.39-1.06,2.47,2.47,0,0,0-.71-.73,3.17,3.17,0,0,0-1-.43,4.54,4.54,0,0,0-1.13-.14,3.35,3.35,0,0,0-1.67.39,3.23,3.23,0,0,0-1.14,1,4.46,4.46,0,0,0-.66,1.45,6.78,6.78,0,0,0-.21,1.68,5.41,5.41,0,0,0,.24,1.61,4.2,4.2,0,0,0,.71,1.36,3.29,3.29,0,0,0,2.73,1.3,3.79,3.79,0,0,0,1.48-.27,3.05,3.05,0,0,0,1.76-1.85,3.64,3.64,0,0,0,.19-1.37h-3.42v-1.2h4.7v5.64H333l-.38-1.34A3.6,3.6,0,0,1,331.08,251.25Z"/><path class="cls-1" d="M346.1,250.59a4.41,4.41,0,0,1-3.12,1,4.82,4.82,0,0,1-3.23-1,3.84,3.84,0,0,1-1.17-3.12v-6.84H340v6.84a2.91,2.91,0,0,0,.76,2.18,3.07,3.07,0,0,0,2.21.74,2.74,2.74,0,0,0,2.07-.74,3,3,0,0,0,.72-2.18v-6.84h1.42v6.84A4,4,0,0,1,346.1,250.59Z"/><path class="cls-1" d="M356.58,240.67l4.19,10.71h-1.58L358,248.15h-4.53l-1.2,3.23h-1.45L355,240.67Zm1,6.28-1.78-5h0l-1.82,5Z"/><path class="cls-1" d="M370.89,251.25a5.15,5.15,0,0,1-1.87.37,5,5,0,0,1-2.15-.45,4.75,4.75,0,0,1-1.6-1.19,5.21,5.21,0,0,1-1-1.72,6.05,6.05,0,0,1-.34-2,7.47,7.47,0,0,1,.32-2.23,5.52,5.52,0,0,1,1-1.85,4.73,4.73,0,0,1,1.59-1.27,5,5,0,0,1,2.23-.47,6.7,6.7,0,0,1,1.64.2,4.36,4.36,0,0,1,1.38.64,3.7,3.7,0,0,1,1,1.1,4.49,4.49,0,0,1,.56,1.62H372.2a2.78,2.78,0,0,0-.39-1.06,2.47,2.47,0,0,0-.71-.73,3.29,3.29,0,0,0-1-.43,4.6,4.6,0,0,0-1.13-.14,3.42,3.42,0,0,0-1.68.39,3.29,3.29,0,0,0-1.13,1,4.46,4.46,0,0,0-.66,1.45,6.78,6.78,0,0,0-.21,1.68,5.41,5.41,0,0,0,.24,1.61,4.2,4.2,0,0,0,.71,1.36,3.29,3.29,0,0,0,2.73,1.3,3.79,3.79,0,0,0,1.48-.27,3.24,3.24,0,0,0,1.09-.74,3.3,3.3,0,0,0,.67-1.11,3.64,3.64,0,0,0,.19-1.37H369v-1.2h4.7v5.64h-.9l-.38-1.34A3.6,3.6,0,0,1,370.89,251.25Z"/><path class="cls-1" d="M385.85,240.67v1.2h-6v3.4h5.56v1.2h-5.56v3.71h6v1.2h-7.44V240.67Z"/><path class="cls-1" d="M69.36,262.87v-1.2h8.57v1.2H74.36v9.51H72.93v-9.51Z"/><path class="cls-1" d="M86.78,261.67a3.51,3.51,0,0,1,2.39.75,2.55,2.55,0,0,1,.86,2.05,3.2,3.2,0,0,1-.44,1.71,2.28,2.28,0,0,1-1.42,1v0a1.89,1.89,0,0,1,.76.3,1.6,1.6,0,0,1,.47.5,2.2,2.2,0,0,1,.25.65,5.86,5.86,0,0,1,.13.75c0,.26,0,.53,0,.8a6.82,6.82,0,0,0,.08.79,5.35,5.35,0,0,0,.17.74,1.91,1.91,0,0,0,.34.63H88.82a.85.85,0,0,1-.2-.45,4,4,0,0,1-.07-.64c0-.24,0-.49,0-.76a5.16,5.16,0,0,0-.09-.79q-.06-.39-.15-.75a1.72,1.72,0,0,0-.29-.61,1.41,1.41,0,0,0-.51-.42,1.82,1.82,0,0,0-.84-.16H83.16v4.58H81.74V261.67Zm.3,4.86a2,2,0,0,0,.79-.3,1.68,1.68,0,0,0,.54-.58,2,2,0,0,0,.2-.95,1.92,1.92,0,0,0-.45-1.32,1.86,1.86,0,0,0-1.46-.51H83.16v3.73h3A5.82,5.82,0,0,0,87.08,266.53Z"/><path class="cls-1" d="M99.12,261.67l4.19,10.71h-1.58l-1.17-3.23H96l-1.2,3.23H93.38l4.17-10.71Zm1,6.28-1.78-5h0l-1.82,5Z"/><path class="cls-1" d="M108.47,261.67v10.71H107V261.67Z"/><path class="cls-1" d="M115,261.67l5.64,8.68h0v-8.68H122v10.71h-1.56l-5.59-8.6h0v8.6h-1.35V261.67Z"/><path class="cls-1" d="M128.43,261.67v10.71H127V261.67Z"/><path class="cls-1" d="M135,261.67l5.64,8.68h0v-8.68H142v10.71h-1.56l-5.6-8.6h0v8.6h-1.35V261.67Z"/><path class="cls-1" d="M153.36,272.25a5.15,5.15,0,0,1-1.87.37,5,5,0,0,1-2.15-.45,4.75,4.75,0,0,1-1.6-1.19,5.21,5.21,0,0,1-1-1.72,6.05,6.05,0,0,1-.34-2,7.81,7.81,0,0,1,.32-2.23,5.71,5.71,0,0,1,1-1.85,4.83,4.83,0,0,1,1.59-1.27,5,5,0,0,1,2.23-.47,6.64,6.64,0,0,1,1.64.2,4.17,4.17,0,0,1,1.38.64,3.7,3.7,0,0,1,1,1.1,4.31,4.31,0,0,1,.56,1.62h-1.42a2.78,2.78,0,0,0-.39-1.06,2.47,2.47,0,0,0-.71-.73,3.17,3.17,0,0,0-.95-.43,4.54,4.54,0,0,0-1.13-.14,3.35,3.35,0,0,0-1.67.39,3.23,3.23,0,0,0-1.14,1,4.46,4.46,0,0,0-.66,1.45,6.78,6.78,0,0,0-.21,1.68,5.41,5.41,0,0,0,.24,1.61,4.2,4.2,0,0,0,.71,1.36,3.32,3.32,0,0,0,2.73,1.3,3.79,3.79,0,0,0,1.48-.27,3.05,3.05,0,0,0,1.76-1.85,3.64,3.64,0,0,0,.19-1.37H151.5v-1.2h4.7v5.64h-.9l-.38-1.34A3.6,3.6,0,0,1,153.36,272.25Z"/><path class="cls-1" d="M173.08,263.13a3,3,0,0,0-1.82-.52,4.41,4.41,0,0,0-.89.09,2.38,2.38,0,0,0-.77.3,1.7,1.7,0,0,0-.54.56,1.82,1.82,0,0,0-.2.88,1.12,1.12,0,0,0,.29.8,2.2,2.2,0,0,0,.78.51,6.88,6.88,0,0,0,1.1.32c.41.08.83.18,1.26.28s.84.21,1.25.35a3.91,3.91,0,0,1,1.1.55,2.61,2.61,0,0,1,.78.87,2.63,2.63,0,0,1,.29,1.32,2.74,2.74,0,0,1-.38,1.46,3.19,3.19,0,0,1-1,1,4.26,4.26,0,0,1-1.35.55,6.16,6.16,0,0,1-1.47.18,6.23,6.23,0,0,1-1.7-.23,4.2,4.2,0,0,1-1.41-.68,3.22,3.22,0,0,1-1-1.17,3.73,3.73,0,0,1-.36-1.69h1.35a2.34,2.34,0,0,0,.27,1.16,2.26,2.26,0,0,0,.69.81,2.82,2.82,0,0,0,1,.46,4.58,4.58,0,0,0,1.17.15,5.39,5.39,0,0,0,1-.09,2.7,2.7,0,0,0,.88-.31,1.7,1.7,0,0,0,.63-.59,1.75,1.75,0,0,0,.24-1,1.37,1.37,0,0,0-.29-.9,2.17,2.17,0,0,0-.78-.56,6.3,6.3,0,0,0-1.11-.35l-1.25-.28c-.42-.1-.84-.21-1.25-.33a4.69,4.69,0,0,1-1.11-.5,2.33,2.33,0,0,1-.77-.79,2.3,2.3,0,0,1-.3-1.22,2.88,2.88,0,0,1,.33-1.41,2.93,2.93,0,0,1,.88-1,3.67,3.67,0,0,1,1.25-.57,5.25,5.25,0,0,1,1.43-.19,5.72,5.72,0,0,1,1.53.2,3.38,3.38,0,0,1,1.23.61,3,3,0,0,1,.85,1.06,3.87,3.87,0,0,1,.33,1.52h-1.35A2.2,2.2,0,0,0,173.08,263.13Z"/><path class="cls-1" d="M187.46,261.67v1.2h-6v3.4h5.56v1.2h-5.56v3.71h6v1.2h-7.44V261.67Z"/><path class="cls-1" d="M196.89,261.67a3.56,3.56,0,0,1,2.4.75,2.59,2.59,0,0,1,.86,2.05,3.3,3.3,0,0,1-.44,1.71,2.3,2.3,0,0,1-1.42,1v0a1.84,1.84,0,0,1,.75.3,1.49,1.49,0,0,1,.47.5,2.2,2.2,0,0,1,.25.65,5.86,5.86,0,0,1,.13.75c0,.26,0,.53.05.8a6.82,6.82,0,0,0,.07.79,4.21,4.21,0,0,0,.18.74,1.73,1.73,0,0,0,.33.63h-1.59a.85.85,0,0,1-.2-.45,5.7,5.7,0,0,1-.07-.64c0-.24,0-.49,0-.76a5.16,5.16,0,0,0-.09-.79q-.06-.39-.15-.75a1.71,1.71,0,0,0-.28-.61,1.41,1.41,0,0,0-.51-.42,1.82,1.82,0,0,0-.84-.16h-3.48v4.58h-1.43V261.67Zm.3,4.86a2,2,0,0,0,.79-.3,1.59,1.59,0,0,0,.54-.58,2.24,2.24,0,0,0-.25-2.27,1.84,1.84,0,0,0-1.45-.51h-3.54v3.73h3A5.69,5.69,0,0,0,197.19,266.53Z"/><path class="cls-1" d="M207.08,272.38l-3.77-10.71h1.53L207.9,271h0l3.09-9.28h1.49l-3.81,10.71Z"/><path class="cls-1" d="M217.76,261.67v10.71h-1.43V261.67Z"/><path class="cls-1" d="M229.26,263.18a3.34,3.34,0,0,0-1.95-.57,3.48,3.48,0,0,0-1.64.36,3.18,3.18,0,0,0-1.12,1,4.06,4.06,0,0,0-.66,1.39,6.2,6.2,0,0,0-.21,1.62,7,7,0,0,0,.21,1.73,4,4,0,0,0,.66,1.42,3.13,3.13,0,0,0,1.13,1,3.53,3.53,0,0,0,1.65.36,3.24,3.24,0,0,0,1.25-.23,2.87,2.87,0,0,0,.95-.65,3,3,0,0,0,.62-1,4.09,4.09,0,0,0,.27-1.23h1.42a4.86,4.86,0,0,1-1.39,3.15,4.52,4.52,0,0,1-3.24,1.13,5.26,5.26,0,0,1-2.18-.43,4.32,4.32,0,0,1-1.54-1.18,5,5,0,0,1-.92-1.77,7.39,7.39,0,0,1-.31-2.19,7.18,7.18,0,0,1,.33-2.2,5.25,5.25,0,0,1,1-1.79,4.49,4.49,0,0,1,1.59-1.21,5.17,5.17,0,0,1,2.18-.44,5.51,5.51,0,0,1,1.59.23,4.25,4.25,0,0,1,1.33.66,3.76,3.76,0,0,1,1,1.08,4,4,0,0,1,.51,1.51h-1.43A2.66,2.66,0,0,0,229.26,263.18Z"/><path class="cls-1" d="M243.63,261.67v1.2h-6v3.4h5.57v1.2h-5.57v3.71h6v1.2h-7.44V261.67Z"/><path class="cls-1" d="M253.39,263.13a3,3,0,0,0-1.82-.52,4.41,4.41,0,0,0-.89.09,2.38,2.38,0,0,0-.77.3,1.7,1.7,0,0,0-.54.56,1.82,1.82,0,0,0-.2.88,1.12,1.12,0,0,0,.29.8,2.2,2.2,0,0,0,.78.51,7.2,7.2,0,0,0,1.1.32c.41.08.83.18,1.26.28s.84.21,1.25.35a3.91,3.91,0,0,1,1.1.55,2.5,2.5,0,0,1,.78.87,3.07,3.07,0,0,1-.09,2.78,3.19,3.19,0,0,1-1,1,4.3,4.3,0,0,1-1.34.55,6.3,6.3,0,0,1-1.48.18,6.23,6.23,0,0,1-1.7-.23,4.2,4.2,0,0,1-1.41-.68,3.22,3.22,0,0,1-1-1.17,3.73,3.73,0,0,1-.36-1.69h1.35A2.34,2.34,0,0,0,249,270a2.26,2.26,0,0,0,.69.81,2.82,2.82,0,0,0,1,.46,4.58,4.58,0,0,0,1.17.15,5.31,5.31,0,0,0,1-.09,2.7,2.7,0,0,0,.88-.31,1.7,1.7,0,0,0,.63-.59,1.75,1.75,0,0,0,.24-1,1.37,1.37,0,0,0-.29-.9,2.17,2.17,0,0,0-.78-.56,6.3,6.3,0,0,0-1.11-.35l-1.25-.28c-.42-.1-.84-.21-1.25-.33a4.44,4.44,0,0,1-1.1-.5,2.27,2.27,0,0,1-.78-.79,2.3,2.3,0,0,1-.3-1.22,2.88,2.88,0,0,1,.33-1.41,2.93,2.93,0,0,1,.88-1,3.76,3.76,0,0,1,1.25-.57,5.25,5.25,0,0,1,1.43-.19,5.72,5.72,0,0,1,1.53.2,3.51,3.51,0,0,1,1.24.61,3,3,0,0,1,.84,1.06,3.87,3.87,0,0,1,.33,1.52h-1.35A2.2,2.2,0,0,0,253.39,263.13Z"/><rect id="_Slice_" data-name="&lt;Slice&gt;" class="cls-7" width="423" height="273"/></svg>